<svg xmlns="http://www.w3.org/2000/svg" viewBox="0 0 1260 1050" preserveAspectRatio="xMidYMid slice"><defs></defs><rect width="1260" height="1050" fill="#ece6e3"/>
<circle cx="260" cy="300" r="180" fill="#f6f2f0" stroke="#cfc3be" stroke-width="6"/><circle cx="206" cy="237" r="32.4" fill="#ffffff" opacity=".8"/><circle cx="640" cy="520" r="260" fill="#f6f2f0" stroke="#cfc3be" stroke-width="6"/><circle cx="562" cy="429" r="46.8" fill="#ffffff" opacity=".8"/><circle cx="1000" cy="260" r="200" fill="#f6f2f0" stroke="#cfc3be" stroke-width="6"/><circle cx="940" cy="190" r="36" fill="#ffffff" opacity=".8"/><circle cx="380" cy="820" r="150" fill="#f6f2f0" stroke="#cfc3be" stroke-width="6"/><circle cx="335" cy="767.5" r="27" fill="#ffffff" opacity=".8"/><circle cx="900" cy="860" r="210" fill="#f6f2f0" stroke="#cfc3be" stroke-width="6"/><circle cx="837" cy="786.5" r="37.8" fill="#ffffff" opacity=".8"/><circle cx="120" cy="620" r="90" fill="#f6f2f0" stroke="#cfc3be" stroke-width="6"/><circle cx="93" cy="588.5" r="16.2" fill="#ffffff" opacity=".8"/><circle cx="1180" cy="640" r="110" fill="#f6f2f0" stroke="#cfc3be" stroke-width="6"/><circle cx="1147" cy="601.5" r="19.8" fill="#ffffff" opacity=".8"/><circle cx="520" cy="160" r="80" fill="#f6f2f0" stroke="#cfc3be" stroke-width="6"/><circle cx="496" cy="132" r="14.399999999999999" fill="#ffffff" opacity=".8"/><circle cx="760" cy="110" r="60" fill="#f6f2f0" stroke="#cfc3be" stroke-width="6"/><circle cx="742" cy="89" r="10.799999999999999" fill="#ffffff" opacity=".8"/><circle cx="240" cy="1000" r="70" fill="#f6f2f0" stroke="#cfc3be" stroke-width="6"/><circle cx="219" cy="975.5" r="12.6" fill="#ffffff" opacity=".8"/></svg>
